General
Complete name                    : Mon meilleur ami .mkv
Format                           : Matroska
File size                        : 1.04 GiB
Duration                         : 1h 31mn
Overall bit rate                 : 1 637 Kbps


Video
ID                               : 1
Format                           : AVC
Duration                         : 1h 31mn
Bit rate                         : 1 157 Kbps
Width                            : 718 pixels
Height                           : 430 pixels
Display aspect ratio             : 2.35:1
Frame rate                       : 25.000 fps
Resolution                       : 8 bits
Colorimetry                      : 4:2:0
Scan type                        : Progressive
Bits/(Pixel*Frame)               : 0.150
Stream size                      : 753 MiB (71%)
Writing library                  : x264 core 79


Audio
ID                               : 2
Format                           : AC-3
Format/Info                      : Audio Coding 3
Codec ID                         : A_AC3
Duration                         : 1h 31mn
Bit rate mode                    : Constant
Bit rate                         : 448 Kbps
Channel(s)                       : 6 channels
Channel positions                : Front: L C R, Surround: L R, LFE
Sampling rate                    : 48.0 KHz
Stream size                      : 292 MiB (27%)
Language                         : French


Text #1
Language                         : Danish

Text #2
Language                         : Swedish

Text #3
Language                         : Norwegian

Text #4
Language                         : Finnish

